<svg width="10" height="11" viewBox="0 0 10 11" fill="none" xmlns="http://www.w3.org/2000/svg">
<g id="Icons/close">
<path id="Vector (Stroke)" fill-rule="evenodd" clip-rule="evenodd" d="M0.79214 1.29214C1.01499 1.06929 1.37631 1.06929 1.59916 1.29214L9.20786 8.90084C9.43071 9.12369 9.43071 9.48501 9.20786 9.70786C8.98501 9.93071 8.62369 9.93071 8.40084 9.70786L0.79214 2.09916C0.569287 1.87631 0.569287 1.51499 0.79214 1.29214Z" fill="#D24A34"/>
<path id="Vector (Stroke)_2" fill-rule="evenodd" clip-rule="evenodd" d="M9.20786 1.29214C9.43071 1.51499 9.43071 1.87631 9.20786 2.09916L1.59916 9.70786C1.37631 9.93071 1.01499 9.93071 0.79214 9.70786C0.569287 9.48501 0.569287 9.12369 0.79214 8.90084L8.40084 1.29214C8.62369 1.06929 8.98501 1.06929 9.20786 1.29214Z" fill="#D24A34"/>
</g>
</svg>
