<svg width="100" height="54" viewBox="0 0 100 54" fill="none" xmlns="http://www.w3.org/2000/svg">
<path fill-rule="evenodd" clip-rule="evenodd" d="M24.5121 12.9914C21.472 12.717 19.0898 10.1619 19.0898 7.05037C19.0898 3.75578 21.7606 1.08499 25.0552 1.08499C26.712 1.08499 28.211 1.76039 29.292 2.85088C30.0623 1.16863 31.7606 0 33.7319 0C36.2588 0 38.3373 1.92034 38.5874 4.38127C38.7727 4.35347 38.9624 4.33906 39.1554 4.33906C41.252 4.33906 42.9516 6.03865 42.9516 8.13521C42.9516 10.2318 41.252 11.9314 39.1554 11.9314C38.5728 11.9314 38.0208 11.8001 37.5275 11.5655V18.4378H24.5121V12.9914Z" fill="#D24A34"/>
<path fill-rule="evenodd" clip-rule="evenodd" d="M43.2683 44.7493C45.0398 43.1825 45.8713 41.2287 45.1255 40.3854C44.3797 39.5421 42.339 40.1287 40.5674 41.6955C39.1182 42.9772 38.2981 44.5179 38.4559 45.4977C37.9707 45.8903 37.4401 46.2816 36.8733 46.6501C35.0375 47.8436 32.8767 48.7617 30.6815 48.7617C28.4823 48.7617 26.2291 47.8408 24.2758 46.6418C22.4403 45.5151 20.9223 44.1752 20.0363 43.2355V41.8639C20.0363 41.5345 19.7693 41.2674 19.4398 41.2674C19.1103 41.2674 18.8433 41.5345 18.8433 41.8639V42.8732H17.2987C16.9692 42.8732 16.7021 43.1403 16.7021 43.4698C16.7021 43.7992 16.9692 44.0663 17.2987 44.0663H19.1799C20.1353 45.0772 21.7288 46.4783 23.6516 47.6586C25.6951 48.913 28.1702 49.9548 30.6815 49.9548C33.1967 49.9548 35.5857 48.9102 37.5236 47.6503C38.1449 47.2465 38.7254 46.8168 39.2551 46.3856C40.2109 46.6486 41.8285 46.0227 43.2683 44.7493Z" fill="#D24A34"/>
<path d="M7.90412 35.8339C6.51842 35.8339 5.32534 35.5201 4.3249 34.8925C3.33067 34.2586 2.56635 33.3856 2.03196 32.2733C1.49756 31.161 1.23036 29.8871 1.23036 28.4517C1.23036 26.9977 1.50377 25.7145 2.0506 24.6022C2.59742 23.4837 3.36795 22.6106 4.36218 21.983C5.35641 21.3554 6.52774 21.0416 7.87616 21.0416C8.9636 21.0416 9.93297 21.2436 10.7843 21.6475C11.6356 22.0452 12.3222 22.6044 12.8442 23.3252C13.3724 24.046 13.6862 24.888 13.7856 25.8512H11.0732C10.9241 25.1801 10.5823 24.6022 10.0479 24.1175C9.51975 23.6328 8.81136 23.3905 7.92276 23.3905C7.14602 23.3905 6.4656 23.5955 5.88149 24.0056C5.30359 24.4096 4.85308 24.9874 4.52996 25.7393C4.20683 26.485 4.04527 27.3674 4.04527 28.3865C4.04527 29.4304 4.20373 30.3314 4.52064 31.0895C4.83755 31.8476 5.28495 32.4348 5.86285 32.8512C6.44696 33.2675 7.1336 33.4757 7.92276 33.4757C8.45095 33.4757 8.92942 33.3794 9.35818 33.1867C9.79316 32.9879 10.1567 32.7052 10.4487 32.3385C10.747 31.9719 10.9552 31.5307 11.0732 31.015H13.7856C13.6862 31.9408 13.3848 32.7673 12.8815 33.4943C12.3782 34.2214 11.7039 34.793 10.8588 35.2094C10.02 35.6257 9.03506 35.8339 7.90412 35.8339ZM50.9597 30.6887L50.941 27.2866H51.4257L57.1301 21.228H60.467L53.961 28.1255H53.5229L50.9597 30.6887ZM48.3964 35.5449V16.4557H51.1834V35.5449H48.3964ZM57.4377 35.5449L52.3112 28.7407L54.2313 26.7926L60.8585 35.5449H57.4377ZM63.007 35.5449V21.228H65.7939V35.5449H63.007ZM64.4144 19.019C63.9297 19.019 63.5134 18.8574 63.1654 18.5343C62.8236 18.2049 62.6528 17.8135 62.6528 17.3598C62.6528 16.9 62.8236 16.5085 63.1654 16.1854C63.5134 15.8561 63.9297 15.6914 64.4144 15.6914C64.8991 15.6914 65.3123 15.8561 65.6541 16.1854C66.0021 16.5085 66.1761 16.9 66.1761 17.3598C66.1761 17.8135 66.0021 18.2049 65.6541 18.5343C65.3123 18.8574 64.8991 19.019 64.4144 19.019ZM72.3302 27.0443V35.5449H69.5432V21.228H72.2183V23.5582H72.3954C72.7248 22.8001 73.2405 22.1912 73.9427 21.7313C74.6511 21.2715 75.5428 21.0416 76.6178 21.0416C77.5934 21.0416 78.4478 21.2467 79.181 21.6568C79.9143 22.0607 80.4829 22.6634 80.8868 23.465C81.2907 24.2666 81.4926 25.2578 81.4926 26.4384V35.5449H78.7057V26.774C78.7057 25.7362 78.4354 24.9253 77.8948 24.3412C77.3541 23.7509 76.6116 23.4557 75.6671 23.4557C75.0208 23.4557 74.446 23.5955 73.9427 23.8752C73.4456 24.1548 73.051 24.5649 72.7589 25.1055C72.4731 25.6399 72.3302 26.2862 72.3302 27.0443ZM91.233 41.212C90.0958 41.212 89.1171 41.0629 88.2969 40.7646C87.4829 40.4664 86.818 40.0718 86.3022 39.5809C85.7865 39.09 85.4012 38.5525 85.1464 37.9684L87.5419 36.9803C87.7097 37.2538 87.9334 37.5427 88.213 37.8472C88.4988 38.1579 88.8841 38.422 89.3688 38.6395C89.8597 38.8569 90.4904 38.9657 91.2609 38.9657C92.3173 38.9657 93.1904 38.7078 93.8801 38.1921C94.5699 37.6825 94.9147 36.8685 94.9147 35.75V32.9351H94.7376C94.5699 33.2396 94.3275 33.5782 94.0106 33.951C93.6999 34.3239 93.2711 34.647 92.7243 34.9204C92.1775 35.1938 91.466 35.3305 90.5898 35.3305C89.4589 35.3305 88.4398 35.0664 87.5326 34.5383C86.6316 34.0039 85.917 33.2178 85.3888 32.1801C84.8668 31.1361 84.6058 29.853 84.6058 28.3305C84.6058 26.8081 84.8637 25.5032 85.3794 24.4158C85.9014 23.3283 86.616 22.4957 87.5233 21.9178C88.4305 21.3337 89.4589 21.0416 90.6085 21.0416C91.4971 21.0416 92.2148 21.1907 92.7616 21.489C93.3084 21.7811 93.7341 22.1228 94.0386 22.5143C94.3493 22.9058 94.5885 23.2507 94.7563 23.5489H94.9613V21.228H97.6924V35.8618C97.6924 37.0922 97.4065 38.102 96.8348 38.8911C96.2632 39.6803 95.4895 40.2644 94.5139 40.6435C93.5446 41.0225 92.4509 41.212 91.233 41.212ZM91.205 33.019C92.0066 33.019 92.6839 32.8325 93.237 32.4597C93.7962 32.0807 94.2188 31.54 94.5046 30.8379C94.7967 30.1295 94.9427 29.2813 94.9427 28.2933C94.9427 27.3301 94.7998 26.4819 94.5139 25.7487C94.2281 25.0154 93.8086 24.4437 93.2556 24.0336C92.7026 23.6173 92.019 23.4091 91.205 23.4091C90.3661 23.4091 89.6671 23.6266 89.1078 24.0616C88.5486 24.4903 88.126 25.0744 87.8402 25.8139C87.5605 26.5534 87.4207 27.3798 87.4207 28.2933C87.4207 29.2316 87.5636 30.0549 87.8495 30.7633C88.1353 31.4717 88.5579 32.0247 89.1171 32.4224C89.6826 32.8201 90.3786 33.019 91.205 33.019Z" fill="#303030"/>
<path d="M22.7966 35.8339C21.4544 35.8339 20.2831 35.5263 19.2826 34.9111C18.2822 34.2959 17.5054 33.4353 16.9524 32.3292C16.3993 31.2231 16.1228 29.9306 16.1228 28.4517C16.1228 26.9666 16.3993 25.6679 16.9524 24.5556C17.5054 23.4433 18.2822 22.5795 19.2826 21.9644C20.2831 21.3492 21.4544 21.0416 22.7966 21.0416C24.1388 21.0416 25.3101 21.3492 26.3106 21.9644C27.311 22.5795 28.0878 23.4433 28.6408 24.5556C29.1938 25.6679 29.4704 26.9666 29.4704 28.4517C29.4704 29.9306 29.1938 31.2231 28.6408 32.3292C28.0878 33.4353 27.311 34.2959 26.3106 34.9111C25.3101 35.5263 24.1388 35.8339 22.7966 35.8339ZM22.8059 33.4943C23.6759 33.4943 24.3967 33.2644 24.9684 32.8046C25.54 32.3447 25.9626 31.7327 26.236 30.9684C26.5156 30.204 26.6554 29.3621 26.6554 28.4424C26.6554 27.5289 26.5156 26.6901 26.236 25.9258C25.9626 25.1552 25.54 24.5369 24.9684 24.0709C24.3967 23.6048 23.6759 23.3718 22.8059 23.3718C21.9297 23.3718 21.2027 23.6048 20.6248 24.0709C20.0531 24.5369 19.6275 25.1552 19.3479 25.9258C19.0744 26.6901 18.9377 27.5289 18.9377 28.4424C18.9377 29.3621 19.0744 30.204 19.3479 30.9684C19.6275 31.7327 20.0531 32.3447 20.6248 32.8046C21.2027 33.2644 21.9297 33.4943 22.8059 33.4943ZM38.6118 35.8339C37.2696 35.8339 36.0983 35.5263 35.0978 34.9111C34.0974 34.2959 33.3207 33.4353 32.7676 32.3292C32.2146 31.2231 31.9381 29.9306 31.9381 28.4517C31.9381 26.9666 32.2146 25.6679 32.7676 24.5556C33.3207 23.4433 34.0974 22.5795 35.0978 21.9644C36.0983 21.3492 37.2696 21.0416 38.6118 21.0416C39.954 21.0416 41.1254 21.3492 42.1258 21.9644C43.1263 22.5795 43.903 23.4433 44.456 24.5556C45.0091 25.6679 45.2856 26.9666 45.2856 28.4517C45.2856 29.9306 45.0091 31.2231 44.456 32.3292C43.903 33.4353 43.1263 34.2959 42.1258 34.9111C41.1254 35.5263 39.954 35.8339 38.6118 35.8339ZM38.6211 33.4943C39.4911 33.4943 40.2119 33.2644 40.7836 32.8046C41.3553 32.3447 41.7778 31.7327 42.0512 30.9684C42.3309 30.204 42.4707 29.3621 42.4707 28.4424C42.4707 27.5289 42.3309 26.6901 42.0512 25.9258C41.7778 25.1552 41.3553 24.5369 40.7836 24.0709C40.2119 23.6048 39.4911 23.3718 38.6211 23.3718C37.745 23.3718 37.018 23.6048 36.4401 24.0709C35.8684 24.5369 35.4427 25.1552 35.1631 25.9258C34.8897 26.6901 34.753 27.5289 34.753 28.4424C34.753 29.3621 34.8897 30.204 35.1631 30.9684C35.4427 31.7327 35.8684 32.3447 36.4401 32.8046C37.018 33.2644 37.745 33.4943 38.6211 33.4943Z" fill="#D24A34"/>
<path d="M53.2159 41.2727V42.6364H48.4489V41.2727H53.2159ZM49.7273 39.1818H51.4261V47.4375C51.4261 47.767 51.4754 48.0152 51.5739 48.1818C51.6723 48.3447 51.7992 48.4564 51.9545 48.517C52.1136 48.5739 52.286 48.6023 52.4716 48.6023C52.608 48.6023 52.7273 48.5928 52.8295 48.5739C52.9318 48.5549 53.0114 48.5398 53.0682 48.5284L53.375 49.9318C53.2765 49.9697 53.1364 50.0076 52.9545 50.0455C52.7727 50.0871 52.5455 50.1098 52.2727 50.1136C51.8258 50.1212 51.4091 50.0417 51.0227 49.875C50.6364 49.7083 50.3239 49.4508 50.0852 49.1023C49.8466 48.7538 49.7273 48.3163 49.7273 47.7898V39.1818ZM55.0952 50V41.2727H56.794V50H55.0952ZM55.9531 39.9261C55.6577 39.9261 55.4039 39.8277 55.1918 39.6307C54.9834 39.4299 54.8793 39.1913 54.8793 38.9148C54.8793 38.6345 54.9834 38.3958 55.1918 38.1989C55.4039 37.9981 55.6577 37.8977 55.9531 37.8977C56.2486 37.8977 56.5005 37.9981 56.7088 38.1989C56.9209 38.3958 57.027 38.6345 57.027 38.9148C57.027 39.1913 56.9209 39.4299 56.7088 39.6307C56.5005 39.8277 56.2486 39.9261 55.9531 39.9261ZM59.0795 50V41.2727H60.7102V42.6932H60.8182C61 42.2121 61.2973 41.8371 61.7102 41.5682C62.1231 41.2955 62.6174 41.1591 63.1932 41.1591C63.7765 41.1591 64.2652 41.2955 64.6591 41.5682C65.0568 41.8409 65.3504 42.2159 65.5398 42.6932H65.6307C65.839 42.2273 66.1705 41.8561 66.625 41.5795C67.0795 41.2992 67.6212 41.1591 68.25 41.1591C69.0417 41.1591 69.6875 41.4072 70.1875 41.9034C70.6913 42.3996 70.9432 43.1477 70.9432 44.1477V50H69.2443V44.3068C69.2443 43.7159 69.0833 43.2879 68.7614 43.0227C68.4394 42.7576 68.0549 42.625 67.608 42.625C67.0549 42.625 66.625 42.7955 66.3182 43.1364C66.0114 43.4735 65.858 43.9072 65.858 44.4375V50H64.1648V44.1989C64.1648 43.7254 64.017 43.3447 63.7216 43.0568C63.4261 42.7689 63.0417 42.625 62.5682 42.625C62.2462 42.625 61.9489 42.7102 61.6761 42.8807C61.4072 43.0473 61.1894 43.2803 61.0227 43.5795C60.8598 43.8788 60.7784 44.2254 60.7784 44.6193V50H59.0795ZM76.9815 50.1761C76.1217 50.1761 75.3812 49.9924 74.7599 49.625C74.1425 49.2538 73.6652 48.733 73.3281 48.0625C72.9948 47.3883 72.8281 46.5985 72.8281 45.6932C72.8281 44.7992 72.9948 44.0114 73.3281 43.3295C73.6652 42.6477 74.1349 42.1155 74.7372 41.733C75.3433 41.3504 76.0516 41.1591 76.8622 41.1591C77.3546 41.1591 77.8319 41.2405 78.294 41.4034C78.7562 41.5663 79.1709 41.822 79.5384 42.1705C79.9058 42.5189 80.1955 42.9716 80.4077 43.5284C80.6198 44.0814 80.7259 44.7538 80.7259 45.5455V46.1477H73.7884V44.875H79.0611C79.0611 44.428 78.9702 44.0322 78.7884 43.6875C78.6065 43.339 78.3509 43.0644 78.0213 42.8636C77.6955 42.6629 77.313 42.5625 76.8736 42.5625C76.3963 42.5625 75.9796 42.6799 75.6236 42.9148C75.2713 43.1458 74.9986 43.4489 74.8054 43.8239C74.616 44.1951 74.5213 44.5985 74.5213 45.0341V46.0284C74.5213 46.6117 74.6236 47.108 74.8281 47.517C75.0365 47.9261 75.3262 48.2386 75.6974 48.4545C76.0687 48.6667 76.5024 48.7727 76.9986 48.7727C77.3205 48.7727 77.6141 48.7273 77.8793 48.6364C78.1444 48.5417 78.3736 48.4015 78.5668 48.2159C78.7599 48.0303 78.9077 47.8011 79.0099 47.5284L80.6179 47.8182C80.4891 48.2917 80.258 48.7064 79.9247 49.0625C79.5952 49.4148 79.1804 49.6894 78.6804 49.8864C78.1842 50.0795 77.6179 50.1761 76.9815 50.1761Z" fill="#303030"/>
</svg>
