<svg width="90" height="49" viewBox="0 0 90 49" fill="none" xmlns="http://www.w3.org/2000/svg">
<path fill-rule="evenodd" clip-rule="evenodd" d="M22.0604 11.6922C19.3245 11.4451 17.1807 9.14554 17.1807 6.3453C17.1807 3.38018 19.5844 0.976465 22.5495 0.976465C24.0409 0.976465 25.3902 1.58455 26.3631 2.56631C27.0563 1.05201 28.585 0 30.3593 0C32.6335 0 34.5041 1.7283 34.7293 3.94313C34.8957 3.9182 35.0662 3.90527 35.2396 3.90527C37.1265 3.90527 38.6561 5.43491 38.6561 7.32181C38.6561 9.20871 37.1265 10.7383 35.2396 10.7383C34.7151 10.7383 34.2183 10.6202 33.7742 10.409V16.594H22.0604V11.6922Z" fill="#FDFDFD"/>
<path fill-rule="evenodd" clip-rule="evenodd" d="M38.9415 40.2743C40.5359 38.8642 41.2843 37.1058 40.613 36.3469C39.9418 35.5879 38.1051 36.1158 36.5107 37.526C35.2067 38.6793 34.4686 40.0656 34.6103 40.9475C34.1734 41.301 33.6957 41.6533 33.1853 41.9851C31.5331 43.0593 29.5884 43.8856 27.6126 43.8856C25.6334 43.8856 23.6055 43.0568 21.8475 41.9777C20.1962 40.9641 18.8305 39.7587 18.033 38.9131V37.6779C18.033 37.3814 17.7926 37.141 17.4961 37.141C17.1996 37.141 16.9592 37.3814 16.9592 37.6779V38.5863H15.5691C15.2726 38.5863 15.0322 38.8267 15.0322 39.1232C15.0322 39.4197 15.2726 39.6601 15.5691 39.6601H17.2615C18.1214 40.5698 19.5554 41.8306 21.2858 42.8928C23.1249 44.0217 25.3525 44.9594 27.6126 44.9594C29.8763 44.9594 32.0265 44.0193 33.7706 42.8854C34.3298 42.5218 34.8524 42.1351 35.3292 41.7469C36.1893 41.9839 37.6455 41.4206 38.9415 40.2743Z" fill="#FDFDFD"/>
<path d="M7.11371 31.8509C5.86657 31.8509 4.79281 31.5685 3.89241 31.0036C2.9976 30.4332 2.30972 29.6474 1.82876 28.6463C1.3478 27.6453 1.10732 26.4988 1.10732 25.2069C1.10732 23.8983 1.35339 22.7434 1.84554 21.7424C2.33768 20.7357 3.03116 19.9499 3.92596 19.3851C4.82077 18.8203 5.87496 18.5378 7.08854 18.5378C8.06724 18.5378 8.93968 18.7196 9.70585 19.0831C10.472 19.441 11.09 19.9444 11.5598 20.5931C12.0351 21.2418 12.3176 21.9996 12.407 22.8665H9.96591C9.83169 22.2625 9.5241 21.7424 9.04314 21.3061C8.56777 20.8699 7.93022 20.6518 7.13049 20.6518C6.43142 20.6518 5.81904 20.8364 5.29334 21.2055C4.77323 21.569 4.36777 22.0891 4.07696 22.7658C3.78615 23.4369 3.64074 24.231 3.64074 25.1482C3.64074 26.0878 3.78335 26.8987 4.06857 27.581C4.35379 28.2633 4.75646 28.7918 5.27656 29.1665C5.80226 29.5412 6.42024 29.7285 7.13049 29.7285C7.60585 29.7285 8.03648 29.6418 8.42237 29.4685C8.81384 29.2895 9.14101 29.035 9.40386 28.7051C9.6723 28.3751 9.85965 27.978 9.96591 27.5139H12.407C12.3176 28.3471 12.0463 29.091 11.5933 29.7453C11.1403 30.3996 10.5335 30.9141 9.77296 31.2888C9.01797 31.6635 8.13155 31.8509 7.11371 31.8509ZM20.5169 31.8509C19.3089 31.8509 18.2547 31.574 17.3544 31.0204C16.454 30.4667 15.7549 29.6922 15.2571 28.6967C14.7594 27.7012 14.5105 26.538 14.5105 25.2069C14.5105 23.8703 14.7594 22.7015 15.2571 21.7004C15.7549 20.6993 16.454 19.922 17.3544 19.3683C18.2547 18.8147 19.3089 18.5378 20.5169 18.5378C21.7249 18.5378 22.7791 18.8147 23.6795 19.3683C24.5799 19.922 25.279 20.6993 25.7767 21.7004C26.2745 22.7015 26.5233 23.8703 26.5233 25.2069C26.5233 26.538 26.2745 27.7012 25.7767 28.6967C25.279 29.6922 24.5799 30.4667 23.6795 31.0204C22.7791 31.574 21.7249 31.8509 20.5169 31.8509ZM20.5253 29.7453C21.3083 29.7453 21.957 29.5384 22.4715 29.1245C22.986 28.7107 23.3663 28.1598 23.6124 27.4719C23.8641 26.784 23.9899 26.0262 23.9899 25.1985C23.9899 24.3764 23.8641 23.6215 23.6124 22.9336C23.3663 22.2401 22.986 21.6836 22.4715 21.2642C21.957 20.8448 21.3083 20.635 20.5253 20.635C19.7368 20.635 19.0824 20.8448 18.5623 21.2642C18.0478 21.6836 17.6647 22.2401 17.4131 22.9336C17.167 23.6215 17.044 24.3764 17.044 25.1985C17.044 26.0262 17.167 26.784 17.4131 27.4719C17.6647 28.1598 18.0478 28.7107 18.5623 29.1245C19.0824 29.5384 19.7368 29.7453 20.5253 29.7453ZM34.7506 31.8509C33.5427 31.8509 32.4885 31.574 31.5881 31.0204C30.6877 30.4667 29.9886 29.6922 29.4909 28.6967C28.9931 27.7012 28.7443 26.538 28.7443 25.2069C28.7443 23.8703 28.9931 22.7015 29.4909 21.7004C29.9886 20.6993 30.6877 19.922 31.5881 19.3683C32.4885 18.8147 33.5427 18.5378 34.7506 18.5378C35.9586 18.5378 37.0128 18.8147 37.9132 19.3683C38.8136 19.922 39.5127 20.6993 40.0104 21.7004C40.5082 22.7015 40.757 23.8703 40.757 25.2069C40.757 26.538 40.5082 27.7012 40.0104 28.6967C39.5127 29.6922 38.8136 30.4667 37.9132 31.0204C37.0128 31.574 35.9586 31.8509 34.7506 31.8509ZM34.759 29.7453C35.542 29.7453 36.1907 29.5384 36.7052 29.1245C37.2198 28.7107 37.6 28.1598 37.8461 27.4719C38.0978 26.784 38.2236 26.0262 38.2236 25.1985C38.2236 24.3764 38.0978 23.6215 37.8461 22.9336C37.6 22.2401 37.2198 21.6836 36.7052 21.2642C36.1907 20.8448 35.542 20.635 34.759 20.635C33.9705 20.635 33.3162 20.8448 32.7961 21.2642C32.2815 21.6836 31.8984 22.2401 31.6468 22.9336C31.4007 23.6215 31.2777 24.3764 31.2777 25.1985C31.2777 26.0262 31.4007 26.784 31.6468 27.4719C31.8984 28.1598 32.2815 28.7107 32.7961 29.1245C33.3162 29.5384 33.9705 29.7453 34.759 29.7453ZM45.8637 27.2203L45.8469 24.1583H46.2832L51.4171 18.7056H54.4203L48.5649 24.9133H48.1706L45.8637 27.2203ZM43.5568 31.5908V14.4105H46.0651V31.5908H43.5568ZM51.6939 31.5908L47.0801 25.467L48.8082 23.7137L54.7726 31.5908H51.6939ZM56.7063 31.5908V18.7056H59.2145V31.5908H56.7063ZM57.973 16.7175C57.5368 16.7175 57.1621 16.5721 56.8489 16.2812C56.5413 15.9848 56.3875 15.6325 56.3875 15.2243C56.3875 14.8104 56.5413 14.4581 56.8489 14.1673C57.1621 13.8709 57.5368 13.7227 57.973 13.7227C58.4092 13.7227 58.7811 13.8709 59.0887 14.1673C59.4019 14.4581 59.5585 14.8104 59.5585 15.2243C59.5585 15.6325 59.4019 15.9848 59.0887 16.2812C58.7811 16.5721 58.4092 16.7175 57.973 16.7175ZM65.0972 23.9402V31.5908H62.5889V18.7056H64.9965V20.8028H65.1559C65.4523 20.1205 65.9165 19.5725 66.5484 19.1586C67.186 18.7448 67.9885 18.5378 68.956 18.5378C69.834 18.5378 70.603 18.7224 71.2629 19.0915C71.9229 19.455 72.4346 19.9975 72.7981 20.7189C73.1616 21.4404 73.3434 22.3324 73.3434 23.395V31.5908H70.8351V23.697C70.8351 22.763 70.5918 22.0332 70.1053 21.5075C69.6187 20.9762 68.9504 20.7105 68.1004 20.7105C67.5187 20.7105 67.0014 20.8364 66.5484 21.088C66.101 21.3397 65.7459 21.7088 65.483 22.1954C65.2258 22.6763 65.0972 23.2579 65.0972 23.9402ZM82.1097 36.6912C81.0862 36.6912 80.2054 36.557 79.4672 36.2886C78.7346 36.0201 78.1362 35.665 77.672 35.2232C77.2078 34.7814 76.8611 34.2976 76.6318 33.7719L78.7877 32.8827C78.9387 33.1288 79.14 33.3888 79.3917 33.6629C79.649 33.9425 79.9957 34.1802 80.4319 34.3759C80.8737 34.5716 81.4414 34.6695 82.1348 34.6695C83.0856 34.6695 83.8713 34.4374 84.4921 33.9732C85.1129 33.5147 85.4233 32.782 85.4233 31.7754V29.242H85.2639C85.1129 29.516 84.8948 29.8208 84.6095 30.1563C84.3299 30.4919 83.944 30.7827 83.4519 31.0288C82.9597 31.2748 82.3194 31.3979 81.5308 31.3979C80.513 31.3979 79.5958 31.1602 78.7793 30.6848C77.9684 30.2039 77.3253 29.4964 76.8499 28.5625C76.3801 27.6229 76.1452 26.4681 76.1452 25.0979C76.1452 23.7277 76.3773 22.5533 76.8415 21.5746C77.3113 20.5959 77.9544 19.8465 78.7709 19.3264C79.5874 18.8007 80.513 18.5378 81.5476 18.5378C82.3474 18.5378 82.9933 18.6721 83.4854 18.9405C83.9776 19.2033 84.3607 19.5109 84.6347 19.8633C84.9143 20.2156 85.1296 20.526 85.2806 20.7944H85.4652V18.7056H87.9231V31.876C87.9231 32.9834 87.6659 33.8922 87.1513 34.6024C86.6368 35.3127 85.9406 35.8384 85.0625 36.1795C84.1901 36.5206 83.2058 36.6912 82.1097 36.6912ZM82.0845 29.3175C82.8059 29.3175 83.4155 29.1497 83.9133 28.8141C84.4166 28.473 84.7969 27.9864 85.0541 27.3545C85.317 26.7169 85.4484 25.9535 85.4484 25.0643C85.4484 24.1975 85.3198 23.4341 85.0625 22.7742C84.8053 22.1143 84.4278 21.5997 83.93 21.2306C83.4323 20.8559 82.8171 20.6686 82.0845 20.6686C81.3295 20.6686 80.7004 20.8643 80.197 21.2558C79.6937 21.6417 79.3134 22.1674 79.0561 22.8329C78.8045 23.4984 78.6786 24.2422 78.6786 25.0643C78.6786 25.9088 78.8073 26.6498 79.0645 27.2874C79.3218 27.9249 79.7021 28.4226 80.2054 28.7806C80.7143 29.1385 81.3407 29.3175 82.0845 29.3175Z" fill="#FDFDFD"/>
<path d="M47.8945 37.6455V38.8727H43.6042V37.6455H47.8945ZM44.7547 35.7636H46.2837V43.1938C46.2837 43.4903 46.328 43.7136 46.4167 43.8636C46.5053 44.0102 46.6195 44.1108 46.7593 44.1653C46.9025 44.2165 47.0576 44.242 47.2246 44.242C47.3474 44.242 47.4547 44.2335 47.5468 44.2165C47.6388 44.1994 47.7104 44.1858 47.7616 44.1756L48.0377 45.4386C47.9491 45.4727 47.8229 45.5068 47.6593 45.5409C47.4956 45.5784 47.2911 45.5989 47.0456 45.6023C46.6434 45.6091 46.2684 45.5375 45.9206 45.3875C45.5729 45.2375 45.2917 45.0057 45.0769 44.692C44.8621 44.3784 44.7547 43.9847 44.7547 43.5108V35.7636ZM49.5858 45.5V37.6455H51.1148V45.5H49.5858ZM50.358 36.4335C50.0921 36.4335 49.8637 36.3449 49.6728 36.1676C49.4853 35.9869 49.3915 35.7722 49.3915 35.5233C49.3915 35.271 49.4853 35.0562 49.6728 34.879C49.8637 34.6983 50.0921 34.608 50.358 34.608C50.6239 34.608 50.8506 34.6983 51.0381 34.879C51.229 35.0562 51.3245 35.271 51.3245 35.5233C51.3245 35.7722 51.229 35.9869 51.0381 36.1676C50.8506 36.3449 50.6239 36.4335 50.358 36.4335ZM53.1718 45.5V37.6455H54.6394V38.9239H54.7366C54.9002 38.4909 55.1678 38.1534 55.5394 37.9114C55.911 37.6659 56.3559 37.5432 56.8741 37.5432C57.3991 37.5432 57.8388 37.6659 58.1934 37.9114C58.5513 38.1568 58.8155 38.4943 58.986 38.9239H59.0678C59.2553 38.5045 59.5536 38.1705 59.9627 37.9216C60.3718 37.6693 60.8593 37.5432 61.4252 37.5432C62.1377 37.5432 62.7189 37.7665 63.1689 38.2131C63.6224 38.6597 63.8491 39.333 63.8491 40.233V45.5H62.3201V40.3761C62.3201 39.8443 62.1752 39.4591 61.8854 39.2205C61.5957 38.9818 61.2496 38.8625 60.8474 38.8625C60.3496 38.8625 59.9627 39.0159 59.6866 39.3227C59.4104 39.6261 59.2724 40.0165 59.2724 40.4938V45.5H57.7485V40.279C57.7485 39.8528 57.6155 39.5102 57.3496 39.2511C57.0837 38.992 56.7377 38.8625 56.3116 38.8625C56.0218 38.8625 55.7542 38.9392 55.5087 39.0926C55.2667 39.2426 55.0707 39.4523 54.9207 39.7216C54.7741 39.9909 54.7008 40.3028 54.7008 40.6574V45.5H53.1718ZM69.2836 45.6585C68.5097 45.6585 67.8432 45.4932 67.2841 45.1625C66.7285 44.8284 66.2989 44.3597 65.9955 43.7563C65.6955 43.1494 65.5455 42.4386 65.5455 41.6239C65.5455 40.8193 65.6955 40.1102 65.9955 39.4966C66.2989 38.883 66.7216 38.404 67.2637 38.0597C67.8091 37.7153 68.4466 37.5432 69.1762 37.5432C69.6194 37.5432 70.0489 37.6165 70.4648 37.7631C70.8807 37.9097 71.254 38.1398 71.5847 38.4534C71.9154 38.767 72.1762 39.1744 72.3671 39.6756C72.558 40.1733 72.6535 40.7784 72.6535 41.4909V42.033H66.4097V40.8875H71.1552C71.1552 40.4852 71.0733 40.129 70.9097 39.8188C70.7461 39.5051 70.516 39.258 70.2194 39.0773C69.9262 38.8966 69.5819 38.8063 69.1864 38.8063C68.7569 38.8063 68.3819 38.9119 68.0614 39.1233C67.7444 39.3313 67.4989 39.604 67.3251 39.9415C67.1546 40.2756 67.0694 40.6386 67.0694 41.0307V41.9256C67.0694 42.4506 67.1614 42.8972 67.3455 43.2653C67.533 43.6335 67.7938 43.9148 68.1279 44.1091C68.462 44.3 68.8523 44.3955 69.2989 44.3955C69.5887 44.3955 69.8529 44.3545 70.0915 44.2727C70.3302 44.1875 70.5364 44.0614 70.7103 43.8943C70.8841 43.7273 71.0171 43.521 71.1091 43.2756L72.5563 43.5364C72.4404 43.9625 72.2324 44.3358 71.9324 44.6563C71.6358 44.9733 71.2626 45.2205 70.8126 45.3977C70.366 45.5716 69.8563 45.6585 69.2836 45.6585Z" fill="#FDFDFD"/>
</svg>
