<svg width="18" height="18" viewBox="0 0 18 18" fill="none" xmlns="http://www.w3.org/2000/svg">
<g id="Character/plus">
<path id="Vector (Stroke)" fill-rule="evenodd" clip-rule="evenodd" d="M9.02329 3.1875C9.33395 3.18791 9.58546 3.44008 9.58505 3.75074L9.57129 14.2507C9.57088 14.5614 9.31871 14.8129 9.00805 14.8125C8.69739 14.8121 8.44588 14.5599 8.44629 14.2493L8.46005 3.74926C8.46046 3.4386 8.71263 3.18709 9.02329 3.1875Z" fill="#292929"/>
<path id="Vector (Stroke)_2" fill-rule="evenodd" clip-rule="evenodd" d="M3.1875 9C3.1875 8.68934 3.43934 8.4375 3.75 8.4375H14.25C14.5607 8.4375 14.8125 8.68934 14.8125 9C14.8125 9.31066 14.5607 9.5625 14.25 9.5625H3.75C3.43934 9.5625 3.1875 9.31066 3.1875 9Z" fill="#292929"/>
</g>
</svg>
