<svg width="25" height="25" viewBox="0 0 25 25" fill="none" xmlns="http://www.w3.org/2000/svg">
<g clip-path="url(#clip0_721_2176)">
<path d="M12.5 25C19.4036 25 25 19.4036 25 12.5C25 5.59644 19.4036 0 12.5 0C5.59644 0 0 5.59644 0 12.5C0 19.4036 5.59644 25 12.5 25Z" fill="#3C5A9A"/>
<path d="M16.1411 4H13.372C11.7288 4 9.90102 4.69113 9.90102 7.07309C9.90904 7.90306 9.90102 8.69792 9.90102 9.59249H8V12.6176H9.95985V21.3263H13.5612V12.5601H15.9382L16.1532 9.584H13.4991C13.4991 9.584 13.5051 8.2601 13.4991 7.87564C13.4991 6.93434 14.4786 6.98824 14.5375 6.98824C15.0036 6.98824 15.9098 6.9896 16.1424 6.98824V4H16.1411Z" fill="white"/>
</g>
<defs>
<clipPath id="clip0_721_2176">
<rect width="25" height="25" fill="white"/>
</clipPath>
</defs>
</svg>
