<svg width="24" height="25" viewBox="0 0 24 25" fill="none" xmlns="http://www.w3.org/2000/svg">
<path d="M14.5299 9.96992L9.46992 15.0299C8.81992 14.3799 8.41992 13.4899 8.41992 12.4999C8.41992 10.5199 10.0199 8.91992 11.9999 8.91992C12.9899 8.91992 13.8799 9.31992 14.5299 9.96992Z" stroke="#292D32" stroke-width="1.5" stroke-linecap="round" stroke-linejoin="round"/>
<path d="M17.8198 6.27047C16.0698 4.95047 14.0698 4.23047 11.9998 4.23047C8.46984 4.23047 5.17984 6.31047 2.88984 9.91047C1.98984 11.3205 1.98984 13.6905 2.88984 15.1005C3.67984 16.3405 4.59984 17.4105 5.59984 18.2705" stroke="#292D32" stroke-width="1.5" stroke-linecap="round" stroke-linejoin="round"/>
<path d="M8.41992 20.0297C9.55992 20.5097 10.7699 20.7697 11.9999 20.7697C15.5299 20.7697 18.8199 18.6897 21.1099 15.0897C22.0099 13.6797 22.0099 11.3097 21.1099 9.89969C20.7799 9.37969 20.4199 8.88969 20.0499 8.42969" stroke="#292D32" stroke-width="1.5" stroke-linecap="round" stroke-linejoin="round"/>
<path d="M15.5104 13.2002C15.2504 14.6102 14.1004 15.7602 12.6904 16.0202" stroke="#292D32" stroke-width="1.5" stroke-linecap="round" stroke-linejoin="round"/>
<path d="M9.47 15.0303L2 22.5003" stroke="#292D32" stroke-width="1.5" stroke-linecap="round" stroke-linejoin="round"/>
<path d="M22.0003 2.5L14.5303 9.97" stroke="#292D32" stroke-width="1.5" stroke-linecap="round" stroke-linejoin="round"/>
</svg>
