<svg width="20" height="21" viewBox="0 0 20 21" fill="none" xmlns="http://www.w3.org/2000/svg">
<path fill-rule="evenodd" clip-rule="evenodd" d="M10.0003 2.79199C8.50455 2.79199 7.29199 4.00455 7.29199 5.50033C7.29199 6.9961 8.50455 8.20866 10.0003 8.20866C11.4961 8.20866 12.7087 6.9961 12.7087 5.50033C12.7087 4.00455 11.4961 2.79199 10.0003 2.79199ZM6.04199 5.50033C6.04199 3.3142 7.8142 1.54199 10.0003 1.54199C12.1865 1.54199 13.9587 3.3142 13.9587 5.50033C13.9587 7.68645 12.1865 9.45866 10.0003 9.45866C7.8142 9.45866 6.04199 7.68645 6.04199 5.50033Z" fill="#303030" stroke="#303030" stroke-width="0.5" stroke-linecap="round" stroke-linejoin="round"/>
<path fill-rule="evenodd" clip-rule="evenodd" d="M1.875 18.833C1.875 14.3457 5.5127 10.708 10 10.708C14.4873 10.708 18.125 14.3457 18.125 18.833C18.125 19.1782 17.8452 19.458 17.5 19.458C17.1548 19.458 16.875 19.1782 16.875 18.833C16.875 15.0361 13.7969 11.958 10 11.958C6.20305 11.958 3.125 15.0361 3.125 18.833C3.125 19.1782 2.84518 19.458 2.5 19.458C2.15482 19.458 1.875 19.1782 1.875 18.833Z" fill="#303030" stroke="#303030" stroke-width="0.5" stroke-linecap="round" stroke-linejoin="round"/>
</svg>
