<svg width="64" height="49" viewBox="0 0 64 49" fill="none" xmlns="http://www.w3.org/2000/svg">
<path fill-rule="evenodd" clip-rule="evenodd" d="M14.8318 34.5262C6.7525 33.7974 0.421387 27.0071 0.421387 18.738C0.421387 9.98267 7.51898 2.88508 16.2743 2.88508C20.6777 2.88508 24.6617 4.68036 27.5344 7.57891C29.581 3.10688 34.0951 0 39.3347 0C46.0505 0 51.5742 5.10398 52.2384 11.6445C52.7308 11.5706 53.2349 11.5323 53.7479 11.5323C59.3195 11.5323 63.8361 16.049 63.8361 21.6206C63.8361 27.1921 59.3195 31.7088 53.7479 31.7088C52.1989 31.7088 50.7315 31.3597 49.42 30.7359V48.9998H14.8318V34.5262Z" fill="#D24A34"/>
</svg>
