<svg width="21" height="21" viewBox="0 0 21 21" fill="none" xmlns="http://www.w3.org/2000/svg">
<g id="Phosphor icons / Heart">
<path id="Vector" d="M10.5 17.574C10.5 17.574 2.37128 13.0724 2.37128 7.6061C2.37128 6.63976 2.70983 5.70327 3.32934 4.95596C3.94886 4.20865 4.81105 3.69669 5.76924 3.50718C6.72743 3.31766 7.72242 3.4623 8.58492 3.91649C9.44743 4.37069 10.1242 5.10637 10.5 5.99837V5.99837C10.8758 5.10637 11.5526 4.37069 12.4151 3.91649C13.2776 3.4623 14.2726 3.31766 15.2308 3.50718C16.1889 3.69669 17.0511 4.20865 17.6707 4.95596C18.2902 5.70327 18.6287 6.63976 18.6287 7.6061C18.6287 13.0724 10.5 17.574 10.5 17.574Z" fill="#FDFDFD" stroke="#FDFDFD" stroke-width="2" stroke-linecap="round" stroke-linejoin="round"/>
</g>
</svg>
