<svg width="25" height="25" viewBox="0 0 25 25" fill="none" xmlns="http://www.w3.org/2000/svg">
<path fill-rule="evenodd" clip-rule="evenodd" d="M1.30176 4.6875C1.30176 4.25603 1.65154 3.90625 2.08301 3.90625H22.9163C23.3478 3.90625 23.6976 4.25603 23.6976 4.6875V20.3125C23.6976 20.744 23.3478 21.0938 22.9163 21.0938H2.08301C1.65154 21.0938 1.30176 20.744 1.30176 20.3125V4.6875ZM2.86426 5.46875V19.5312H22.1351V5.46875H2.86426Z" fill="#1C1B1E"/>
<path fill-rule="evenodd" clip-rule="evenodd" d="M1.45805 4.2188C1.71694 3.87362 2.20663 3.80366 2.5518 4.06255L12.4997 11.5235L22.4476 4.06255C22.7928 3.80366 23.2825 3.87362 23.5414 4.2188C23.8003 4.56397 23.7303 5.05366 23.3851 5.31255L12.9685 13.125C12.6907 13.3334 12.3087 13.3334 12.031 13.125L1.6143 5.31255C1.26913 5.05366 1.19917 4.56397 1.45805 4.2188Z" fill="#1C1B1E"/>
<path fill-rule="evenodd" clip-rule="evenodd" d="M1.30176 4.6875C1.30176 4.25603 1.65154 3.90625 2.08301 3.90625H12.4997C12.9311 3.90625 13.2809 4.25603 13.2809 4.6875C13.2809 5.11897 12.9311 5.46875 12.4997 5.46875H2.86426V12.5C2.86426 12.9315 2.51448 13.2812 2.08301 13.2812C1.65154 13.2812 1.30176 12.9315 1.30176 12.5V4.6875Z" fill="#1C1B1E"/>
<path fill-rule="evenodd" clip-rule="evenodd" d="M11.7188 4.6875C11.7188 4.25603 12.0685 3.90625 12.5 3.90625H22.9167C23.3481 3.90625 23.6979 4.25603 23.6979 4.6875V12.5C23.6979 12.9315 23.3481 13.2812 22.9167 13.2812C22.4852 13.2812 22.1354 12.9315 22.1354 12.5V5.46875H12.5C12.0685 5.46875 11.7188 5.11897 11.7188 4.6875Z" fill="#1C1B1E"/>
</svg>
