<svg width="22" height="22" viewBox="0 0 22 22" fill="none" xmlns="http://www.w3.org/2000/svg">
<g id="Phosphor icons / Heart">
<path id="Vector" d="M10.9999 18.4464C10.9999 18.4464 2.44336 13.7078 2.44336 7.95382C2.44336 6.93663 2.79973 5.95085 3.45185 5.16421C4.10397 4.37756 5.01154 3.83865 6.02016 3.63916C7.02878 3.43968 8.07614 3.59193 8.98404 4.07003C9.89194 4.54812 10.6043 5.32252 10.9999 6.26147V6.26147C11.3955 5.32252 12.1079 4.54812 13.0158 4.07003C13.9237 3.59193 14.971 3.43968 15.9796 3.63916C16.9883 3.83865 17.8958 4.37756 18.548 5.16421C19.2001 5.95085 19.5565 6.93663 19.5565 7.95382C19.5565 13.7078 10.9999 18.4464 10.9999 18.4464Z" stroke="#FDFDFD" stroke-width="2" stroke-linecap="round" stroke-linejoin="round"/>
</g>
</svg>
